<svg width="90" height="20" viewBox="0 0 90 20" fill="none" xmlns="http://www.w3.org/2000/svg">
<path d="M40 0H86C88.2091 0 90 1.79086 90 4V16C90 18.2091 88.2091 20 86 20H40V0Z" fill="url(#paint0_linear_1_34)"/>
<path d="M0 4C0 1.79086 1.79086 0 4 0H40V20H4C1.79086 20 0 18.2091 0 16V4Z" fill="url(#paint1_linear_1_34)"/>
<line x1="40.1" y1="4.37114e-09" x2="40.1" y2="20" stroke="#3C3C3C" stroke-width="0.2"/>
<g filter="url(#filter0_d_1_34)">
<path d="M14.7734 13.9414C14.5664 13.9961 14.3398 14.041 14.0938 14.0762C13.8516 14.1113 13.6348 14.1289 13.4434 14.1289C12.7754 14.1289 12.2676 13.9492 11.9199 13.5898C11.5723 13.2305 11.3984 12.6543 11.3984 11.8613V8.38086H10.6543V7.45508H11.3984V5.57422H12.5V7.45508H14.7734V8.38086H12.5V11.3633C12.5 11.707 12.5078 11.9766 12.5234 12.1719C12.5391 12.3633 12.5938 12.543 12.6875 12.7109C12.7734 12.8672 12.8906 12.9824 13.0391 13.0566C13.1914 13.127 13.4219 13.1621 13.7305 13.1621C13.9102 13.1621 14.0977 13.1367 14.293 13.0859C14.4883 13.0312 14.6289 12.9863 14.7148 12.9512H14.7734V13.9414ZM21.1953 14H20.0996V13.3027C20.002 13.3691 19.8691 13.4629 19.7012 13.584C19.5371 13.7012 19.377 13.7949 19.2207 13.8652C19.0371 13.9551 18.8262 14.0293 18.5879 14.0879C18.3496 14.1504 18.0703 14.1816 17.75 14.1816C17.1602 14.1816 16.6602 13.9863 16.25 13.5957C15.8398 13.2051 15.6348 12.707 15.6348 12.1016C15.6348 11.6055 15.7402 11.2051 15.9512 10.9004C16.166 10.5918 16.4707 10.3496 16.8652 10.1738C17.2637 9.99805 17.7422 9.87891 18.3008 9.81641C18.8594 9.75391 19.459 9.70703 20.0996 9.67578V9.50586C20.0996 9.25586 20.0547 9.04883 19.9648 8.88477C19.8789 8.7207 19.7539 8.5918 19.5898 8.49805C19.4336 8.4082 19.2461 8.34766 19.0273 8.31641C18.8086 8.28516 18.5801 8.26953 18.3418 8.26953C18.0527 8.26953 17.7305 8.30859 17.375 8.38672C17.0195 8.46094 16.6523 8.57031 16.2734 8.71484H16.2148V7.5957C16.4297 7.53711 16.7402 7.47266 17.1465 7.40234C17.5527 7.33203 17.9531 7.29688 18.3477 7.29688C18.8086 7.29688 19.209 7.33594 19.5488 7.41406C19.8926 7.48828 20.1895 7.61719 20.4395 7.80078C20.6855 7.98047 20.873 8.21289 21.002 8.49805C21.1309 8.7832 21.1953 9.13672 21.1953 9.55859V14ZM20.0996 12.3887V10.5664C19.7637 10.5859 19.3672 10.6152 18.9102 10.6543C18.457 10.6934 18.0977 10.75 17.832 10.8242C17.5156 10.9141 17.2598 11.0547 17.0645 11.2461C16.8691 11.4336 16.7715 11.6934 16.7715 12.0254C16.7715 12.4004 16.8848 12.6836 17.1113 12.875C17.3379 13.0625 17.6836 13.1562 18.1484 13.1562C18.5352 13.1562 18.8887 13.082 19.209 12.9336C19.5293 12.7812 19.8262 12.5996 20.0996 12.3887ZM28.625 13.2559C28.625 14.3652 28.373 15.1797 27.8691 15.6992C27.3652 16.2188 26.5898 16.4785 25.543 16.4785C25.1953 16.4785 24.8555 16.4531 24.5234 16.4023C24.1953 16.3555 23.8711 16.2871 23.5508 16.1973V15.0723H23.6094C23.7891 15.1426 24.0742 15.2285 24.4648 15.3301C24.8555 15.4355 25.2461 15.4883 25.6367 15.4883C26.0117 15.4883 26.3223 15.4434 26.5684 15.3535C26.8145 15.2637 27.0059 15.1387 27.1426 14.9785C27.2793 14.8262 27.377 14.6426 27.4355 14.4277C27.4941 14.2129 27.5234 13.9727 27.5234 13.707V13.1094C27.1914 13.375 26.873 13.5742 26.5684 13.707C26.2676 13.8359 25.8828 13.9004 25.4141 13.9004C24.6328 13.9004 24.0117 13.6191 23.5508 13.0566C23.0938 12.4902 22.8652 11.6934 22.8652 10.666C22.8652 10.1035 22.9434 9.61914 23.0996 9.21289C23.2598 8.80273 23.4766 8.44922 23.75 8.15234C24.0039 7.875 24.3125 7.66016 24.6758 7.50781C25.0391 7.35156 25.4004 7.27344 25.7598 7.27344C26.1387 7.27344 26.4551 7.3125 26.709 7.39062C26.9668 7.46484 27.2383 7.58008 27.5234 7.73633L27.5938 7.45508H28.625V13.2559ZM27.5234 12.2012V8.63281C27.2305 8.5 26.957 8.40625 26.7031 8.35156C26.4531 8.29297 26.2031 8.26367 25.9531 8.26367C25.3477 8.26367 24.8711 8.4668 24.5234 8.87305C24.1758 9.2793 24.002 9.86914 24.002 10.6426C24.002 11.377 24.1309 11.9336 24.3887 12.3125C24.6465 12.6914 25.0742 12.8809 25.6719 12.8809C25.9922 12.8809 26.3125 12.8203 26.6328 12.6992C26.957 12.5742 27.2539 12.4082 27.5234 12.2012Z" fill="white"/>
</g>
<g filter="url(#filter1_d_1_34)">
<path d="M51.8789 7.45508L49.2305 14H48.123L45.4922 7.45508H46.6875L48.7148 12.6641L50.7246 7.45508H51.8789ZM58.5879 14H53.8652V13.1094H55.6816V7.26172H53.8652V6.46484C54.1113 6.46484 54.375 6.44531 54.6562 6.40625C54.9375 6.36328 55.1504 6.30273 55.2949 6.22461C55.4746 6.12695 55.6152 6.00391 55.7168 5.85547C55.8223 5.70312 55.8828 5.5 55.8984 5.24609H56.8066V13.1094H58.5879V14ZM62.748 14H61.3477V12.3301H62.748V14ZM71.0742 9.63477C71.0742 11.2012 70.8281 12.3516 70.3359 13.0859C69.8477 13.8164 69.0879 14.1816 68.0566 14.1816C67.0098 14.1816 66.2441 13.8105 65.7598 13.0684C65.2793 12.3262 65.0391 11.1855 65.0391 9.64648C65.0391 8.0957 65.2832 6.95117 65.7715 6.21289C66.2598 5.4707 67.0215 5.09961 68.0566 5.09961C69.1035 5.09961 69.8672 5.47656 70.3477 6.23047C70.832 6.98047 71.0742 8.11523 71.0742 9.63477ZM69.5332 12.2949C69.6699 11.9785 69.7617 11.6074 69.8086 11.1816C69.8594 10.752 69.8848 10.2363 69.8848 9.63477C69.8848 9.04102 69.8594 8.52539 69.8086 8.08789C69.7617 7.65039 69.668 7.2793 69.5273 6.97461C69.3906 6.67383 69.2031 6.44727 68.9648 6.29492C68.7305 6.14258 68.4277 6.06641 68.0566 6.06641C67.6895 6.06641 67.3848 6.14258 67.1426 6.29492C66.9043 6.44727 66.7148 6.67773 66.5742 6.98633C66.4414 7.27539 66.3496 7.65234 66.2988 8.11719C66.252 8.58203 66.2285 9.0918 66.2285 9.64648C66.2285 10.2559 66.25 10.7656 66.293 11.1758C66.3359 11.5859 66.4277 11.9531 66.5684 12.2773C66.6973 12.582 66.8789 12.8145 67.1133 12.9746C67.3516 13.1348 67.666 13.2148 68.0566 13.2148C68.4238 13.2148 68.7285 13.1387 68.9707 12.9863C69.2129 12.834 69.4004 12.6035 69.5332 12.2949ZM74.748 14H73.3477V12.3301H74.748V14ZM83.0742 9.63477C83.0742 11.2012 82.8281 12.3516 82.3359 13.0859C81.8477 13.8164 81.0879 14.1816 80.0566 14.1816C79.0098 14.1816 78.2441 13.8105 77.7598 13.0684C77.2793 12.3262 77.0391 11.1855 77.0391 9.64648C77.0391 8.0957 77.2832 6.95117 77.7715 6.21289C78.2598 5.4707 79.0215 5.09961 80.0566 5.09961C81.1035 5.09961 81.8672 5.47656 82.3477 6.23047C82.832 6.98047 83.0742 8.11523 83.0742 9.63477ZM81.5332 12.2949C81.6699 11.9785 81.7617 11.6074 81.8086 11.1816C81.8594 10.752 81.8848 10.2363 81.8848 9.63477C81.8848 9.04102 81.8594 8.52539 81.8086 8.08789C81.7617 7.65039 81.668 7.2793 81.5273 6.97461C81.3906 6.67383 81.2031 6.44727 80.9648 6.29492C80.7305 6.14258 80.4277 6.06641 80.0566 6.06641C79.6895 6.06641 79.3848 6.14258 79.1426 6.29492C78.9043 6.44727 78.7148 6.67773 78.5742 6.98633C78.4414 7.27539 78.3496 7.65234 78.2988 8.11719C78.252 8.58203 78.2285 9.0918 78.2285 9.64648C78.2285 10.2559 78.25 10.7656 78.293 11.1758C78.3359 11.5859 78.4277 11.9531 78.5684 12.2773C78.6973 12.582 78.8789 12.8145 79.1133 12.9746C79.3516 13.1348 79.666 13.2148 80.0566 13.2148C80.4238 13.2148 80.7285 13.1387 80.9707 12.9863C81.2129 12.834 81.4004 12.6035 81.5332 12.2949Z" fill="white"/>
</g>
<defs>
<filter id="filter0_d_1_34" x="10.4543" y="5.57422" width="18.3707" height="12.1043" filterUnits="userSpaceOnUse" color-interpolation-filters="sRGB">
<feFlood flood-opacity="0" result="BackgroundImageFix"/>
<feColorMatrix in="SourceAlpha" type="matrix" values="0 0 0 0 0 0 0 0 0 0 0 0 0 0 0 0 0 0 127 0" result="hardAlpha"/>
<feOffset dy="1"/>
<feGaussianBlur stdDeviation="0.1"/>
<feComposite in2="hardAlpha" operator="out"/>
<feColorMatrix type="matrix" values="0 0 0 0 0 0 0 0 0 0 0 0 0 0 0 0 0 0 0.4 0"/>
<feBlend mode="normal" in2="BackgroundImageFix" result="effect1_dropShadow_1_34"/>
<feBlend mode="normal" in="SourceGraphic" in2="effect1_dropShadow_1_34" result="shape"/>
</filter>
<filter id="filter1_d_1_34" x="45.2922" y="5.09961" width="37.982" height="10.282" filterUnits="userSpaceOnUse" color-interpolation-filters="sRGB">
<feFlood flood-opacity="0" result="BackgroundImageFix"/>
<feColorMatrix in="SourceAlpha" type="matrix" values="0 0 0 0 0 0 0 0 0 0 0 0 0 0 0 0 0 0 127 0" result="hardAlpha"/>
<feOffset dy="1"/>
<feGaussianBlur stdDeviation="0.1"/>
<feComposite in2="hardAlpha" operator="out"/>
<feColorMatrix type="matrix" values="0 0 0 0 0 0 0 0 0 0 0 0 0 0 0 0 0 0 0.4 0"/>
<feBlend mode="normal" in2="BackgroundImageFix" result="effect1_dropShadow_1_34"/>
<feBlend mode="normal" in="SourceGraphic" in2="effect1_dropShadow_1_34" result="shape"/>
</filter>
<linearGradient id="paint0_linear_1_34" x1="65" y1="2" x2="65" y2="20" gradientUnits="userSpaceOnUse">
<stop stop-color="#1590D8"/>
<stop offset="1" stop-color="#085987"/>
</linearGradient>
<linearGradient id="paint1_linear_1_34" x1="20" y1="0" x2="20" y2="20" gradientUnits="userSpaceOnUse">
<stop stop-color="#5F5F5F"/>
<stop offset="1" stop-color="#4A4A4A"/>
</linearGradient>
</defs>
</svg>
